<?xml version="1.0" encoding="UTF-8" standalone="no"?>
<svg
   xmlns:dc="http://purl.org/dc/elements/1.1/"
   xmlns:cc="http://creativecommons.org/ns#"
   xmlns:rdf="http://www.w3.org/1999/02/22-rdf-syntax-ns#"
   xmlns:svg="http://www.w3.org/2000/svg"
   xmlns="http://www.w3.org/2000/svg"
   xmlns:sodipodi="http://sodipodi.sourceforge.net/DTD/sodipodi-0.dtd"
   xmlns:inkscape="http://www.inkscape.org/namespaces/inkscape"
   id="Layer_1"
   enable-background="new 0 0 360 360"
   xml:space="preserve"
   viewBox="0 0 360 360"
   version="1.0"
   y="0px"
   x="0px"
   sodipodi:docname="Sound-Icon1.svg"
   inkscape:version="1.0.1 (3bc2e813f5, 2020-09-07)"><defs
   id="defs939" /><sodipodi:namedview
   pagecolor="#ffffff"
   bordercolor="#666666"
   borderopacity="1"
   objecttolerance="10"
   gridtolerance="10"
   guidetolerance="10"
   inkscape:pageopacity="0"
   inkscape:pageshadow="2"
   inkscape:window-width="1600"
   inkscape:window-height="837"
   id="namedview937"
   showgrid="false"
   inkscape:zoom="1.8611111"
   inkscape:cx="180"
   inkscape:cy="209.53666"
   inkscape:window-x="-8"
   inkscape:window-y="-8"
   inkscape:window-maximized="1"
   inkscape:current-layer="Layer_1" />
<g
   id="g918"
   transform="matrix(0.36568046,0,0,0.29851719,13.970149,211.70149)">
	<path
   d="m 359,323.2 c 0,19.77 -16.03,35.8 -35.8,35.8 H 36.8 C 17.029,359 1,342.97 1,323.2 V 36.8 C 1,17.029 17.029,1 36.802,1 h 286.4 c 19.77,0 35.8,16.029 35.8,35.802 v 286.4 z"
   fill="#ffffff"
   id="path914" />
	<path
   d="M 323.2,360 H 36.8 C 16.506,360 0,343.49 0,323.2 V 36.8 C 0,16.506 16.506,0 36.795,0 h 286.41 c 20.29,0 36.8,16.506 36.8,36.795 v 286.41 c 0,20.29 -16.51,36.8 -36.8,36.8 z M 358,36.81 C 358,17.586 342.42,2.003 323.19,2.003 H 36.81 C 17.583,2.003 2,17.586 2,36.81 V 323.2 C 2,342.42 17.583,358 36.807,358 h 286.39 c 19.22,0 34.8,-15.58 34.8,-34.81 V 36.81 Z"
   id="path916" />
</g>
<g
   id="g932"
   transform="matrix(0.30037314,0,0,0.26751261,25.187267,215.93729)">
	<g
   id="g928">
		<path
   d="m 202.88,115.71 c 13.369,19.213 19.815,42.095 19.815,64.29 0,23.655 -6.937,45.978 -19.769,64.314 l 13.949,8.052 c 14.207,-20.802 21.896,-45.871 21.896,-72.366 0,-26.497 -7.688,-51.568 -21.897,-72.369 l -14,8.09 z"
   id="path920" />
		<path
   d="m 239.67,94.467 c 17.308,25.714 25.638,56.077 25.638,85.533 0,29.458 -8.33,59.819 -25.639,85.532 l 13.972,8.066 c 18.03,-27.016 27.743,-59.41 27.743,-93.599 0,-34.189 -9.714,-66.582 -27.745,-93.597 l -13.97,8.064 z"
   id="path922" />
		<g
   id="g926">
			<path
   d="m 276.42,73.251 c 21.26,32.204 31.504,70.032 31.504,106.75 0,36.716 -10.244,74.544 -31.504,106.75 l 13.941,8.049 c 21.86,-33.23 33.64,-72.92 33.64,-114.8 0,-41.88 -11.778,-81.575 -33.642,-114.8 l -13.94,8.051 z"
   id="path924" />
		</g>
	</g>
	<path
   d="m 167.18,97.535 -58.349,33.688 H 58.906 c -12.598,0 -22.905,10.31 -22.905,22.91 v 51.748 c 0,12.598 10.307,22.904 22.905,22.904 h 49.928 l 58.348,33.687 c 10.908,6.299 19.834,1.146 19.834,-11.453 v -142.03 c 0.01,-12.6 -8.92,-17.753 -19.83,-11.455 z"
   id="path930" />
</g>
<metadata
   id="metadata934"><rdf:RDF><cc:Work><dc:format>image/svg+xml</dc:format><dc:type
         rdf:resource="http://purl.org/dc/dcmitype/StillImage" /><cc:license
         rdf:resource="http://creativecommons.org/licenses/publicdomain/" /><dc:publisher><cc:Agent
           rdf:about="http://openclipart.org/"><dc:title>Openclipart</dc:title></cc:Agent></dc:publisher><dc:title></dc:title></cc:Work><cc:License
       rdf:about="http://creativecommons.org/licenses/publicdomain/"><cc:permits
         rdf:resource="http://creativecommons.org/ns#Reproduction" /><cc:permits
         rdf:resource="http://creativecommons.org/ns#Distribution" /><cc:permits
         rdf:resource="http://creativecommons.org/ns#DerivativeWorks" /></cc:License></rdf:RDF></metadata></svg>
